<mxfile host="app.diagrams.net" modified="2024-02-18T14:20:32.678Z" agent="Mozilla/5.0 (X11; Linux x86_64) AppleWebKit/537.36 (KHTML, like Gecko) Chrome/121.0.0.0 Safari/537.36" etag="yUV81kov3hIZFKt0dxzb" version="23.1.5" type="github">
  <diagram name="PÃ¡gina-1" id="MjYakeXHeJXZvlCBwQWo">
    <mxGraphModel dx="2390" dy="2427" grid="1" gridSize="10" guides="1" tooltips="1" connect="1" arrows="1" fold="1" page="1" pageScale="1" pageWidth="827" pageHeight="1169" math="0" shadow="0">
      <root>
        <mxCell id="0" />
        <mxCell id="1" parent="0" />
        <mxCell id="TjpsCxPV2xhsYt3LEjeR-2" value="" style="rounded=0;whiteSpace=wrap;html=1;glass=0;shadow=0;movable=0;resizable=0;rotatable=0;deletable=0;editable=0;locked=1;connectable=0;" vertex="1" parent="1">
          <mxGeometry x="100" y="-170" width="780" height="570" as="geometry" />
        </mxCell>
        <mxCell id="TjpsCxPV2xhsYt3LEjeR-1" value="Program" style="text;html=1;align=center;verticalAlign=middle;whiteSpace=wrap;rounded=0;movable=0;resizable=0;rotatable=0;deletable=0;editable=0;locked=1;connectable=0;" vertex="1" parent="1">
          <mxGeometry x="460" y="-160" width="60" height="30" as="geometry" />
        </mxCell>
        <mxCell id="TjpsCxPV2xhsYt3LEjeR-4" value="" style="rounded=0;whiteSpace=wrap;html=1;fillColor=#dae8fc;strokeColor=#6c8ebf;movable=0;resizable=0;rotatable=0;deletable=0;editable=0;locked=1;connectable=0;" vertex="1" parent="1">
          <mxGeometry x="130" y="-122.5" width="220" height="490" as="geometry" />
        </mxCell>
        <mxCell id="TjpsCxPV2xhsYt3LEjeR-5" value="" style="rounded=0;whiteSpace=wrap;html=1;fillColor=#dae8fc;strokeColor=#6c8ebf;movable=0;resizable=0;rotatable=0;deletable=0;editable=0;locked=1;connectable=0;" vertex="1" parent="1">
          <mxGeometry x="380" y="-120" width="220" height="490" as="geometry" />
        </mxCell>
        <mxCell id="TjpsCxPV2xhsYt3LEjeR-6" value="" style="rounded=0;whiteSpace=wrap;html=1;fillColor=#dae8fc;strokeColor=#6c8ebf;movable=0;resizable=0;rotatable=0;deletable=0;editable=0;locked=1;connectable=0;" vertex="1" parent="1">
          <mxGeometry x="630" y="-120" width="220" height="490" as="geometry" />
        </mxCell>
        <mxCell id="TjpsCxPV2xhsYt3LEjeR-7" value="Branch" style="text;html=1;align=center;verticalAlign=middle;whiteSpace=wrap;rounded=0;movable=0;resizable=0;rotatable=0;deletable=0;editable=0;locked=1;connectable=0;" vertex="1" parent="1">
          <mxGeometry x="210" y="-110" width="60" height="30" as="geometry" />
        </mxCell>
        <mxCell id="TjpsCxPV2xhsYt3LEjeR-8" value="Branch" style="text;html=1;align=center;verticalAlign=middle;whiteSpace=wrap;rounded=0;movable=0;resizable=0;rotatable=0;deletable=0;editable=0;locked=1;connectable=0;" vertex="1" parent="1">
          <mxGeometry x="460" y="-110" width="60" height="30" as="geometry" />
        </mxCell>
        <mxCell id="TjpsCxPV2xhsYt3LEjeR-20" value="" style="rounded=0;whiteSpace=wrap;html=1;movable=0;resizable=0;rotatable=0;deletable=0;editable=0;locked=1;connectable=0;" vertex="1" parent="1">
          <mxGeometry x="140" y="-80" width="200" height="150" as="geometry" />
        </mxCell>
        <mxCell id="TjpsCxPV2xhsYt3LEjeR-9" value="Branch" style="text;html=1;align=center;verticalAlign=middle;whiteSpace=wrap;rounded=0;movable=0;resizable=0;rotatable=0;deletable=0;editable=0;locked=1;connectable=0;" vertex="1" parent="1">
          <mxGeometry x="710" y="-110" width="60" height="30" as="geometry" />
        </mxCell>
        <mxCell id="TjpsCxPV2xhsYt3LEjeR-10" value="" style="rounded=1;whiteSpace=wrap;html=1;fillColor=#d5e8d4;strokeColor=#82b366;movable=0;resizable=0;rotatable=0;deletable=0;editable=0;locked=1;connectable=0;" vertex="1" parent="1">
          <mxGeometry x="150" y="-40" width="40" height="20" as="geometry" />
        </mxCell>
        <mxCell id="TjpsCxPV2xhsYt3LEjeR-24" style="edgeStyle=orthogonalEdgeStyle;rounded=0;orthogonalLoop=1;jettySize=auto;html=1;entryX=0;entryY=0.5;entryDx=0;entryDy=0;movable=0;resizable=0;rotatable=0;deletable=0;editable=0;locked=1;connectable=0;" edge="1" parent="1" source="TjpsCxPV2xhsYt3LEjeR-11" target="TjpsCxPV2xhsYt3LEjeR-12">
          <mxGeometry relative="1" as="geometry" />
        </mxCell>
        <mxCell id="TjpsCxPV2xhsYt3LEjeR-11" value="Ticket" style="text;html=1;align=center;verticalAlign=middle;whiteSpace=wrap;rounded=0;fontSize=6;movable=0;resizable=0;rotatable=0;deletable=0;editable=0;locked=1;connectable=0;" vertex="1" parent="1">
          <mxGeometry x="155" y="-35" width="30" height="10" as="geometry" />
        </mxCell>
        <mxCell id="TjpsCxPV2xhsYt3LEjeR-12" value="" style="rounded=1;whiteSpace=wrap;html=1;fillColor=#d5e8d4;strokeColor=#82b366;movable=0;resizable=0;rotatable=0;deletable=0;editable=0;locked=1;connectable=0;" vertex="1" parent="1">
          <mxGeometry x="220" y="-40" width="40" height="20" as="geometry" />
        </mxCell>
        <mxCell id="TjpsCxPV2xhsYt3LEjeR-27" style="edgeStyle=orthogonalEdgeStyle;rounded=0;orthogonalLoop=1;jettySize=auto;html=1;entryX=0;entryY=0.5;entryDx=0;entryDy=0;movable=0;resizable=0;rotatable=0;deletable=0;editable=0;locked=1;connectable=0;" edge="1" parent="1" source="TjpsCxPV2xhsYt3LEjeR-13" target="TjpsCxPV2xhsYt3LEjeR-14">
          <mxGeometry relative="1" as="geometry" />
        </mxCell>
        <mxCell id="TjpsCxPV2xhsYt3LEjeR-13" value="Ticket" style="text;html=1;align=center;verticalAlign=middle;whiteSpace=wrap;rounded=0;fontSize=6;movable=0;resizable=0;rotatable=0;deletable=0;editable=0;locked=1;connectable=0;" vertex="1" parent="1">
          <mxGeometry x="225" y="-35" width="30" height="10" as="geometry" />
        </mxCell>
        <mxCell id="TjpsCxPV2xhsYt3LEjeR-14" value="" style="rounded=1;whiteSpace=wrap;html=1;fillColor=#d5e8d4;strokeColor=#82b366;movable=0;resizable=0;rotatable=0;deletable=0;editable=0;locked=1;connectable=0;" vertex="1" parent="1">
          <mxGeometry x="290" y="-40" width="40" height="20" as="geometry" />
        </mxCell>
        <mxCell id="TjpsCxPV2xhsYt3LEjeR-28" style="edgeStyle=orthogonalEdgeStyle;rounded=0;orthogonalLoop=1;jettySize=auto;html=1;entryX=0.5;entryY=0;entryDx=0;entryDy=0;movable=0;resizable=0;rotatable=0;deletable=0;editable=0;locked=1;connectable=0;" edge="1" parent="1" source="TjpsCxPV2xhsYt3LEjeR-15" target="TjpsCxPV2xhsYt3LEjeR-16">
          <mxGeometry relative="1" as="geometry" />
        </mxCell>
        <mxCell id="TjpsCxPV2xhsYt3LEjeR-15" value="Ticket" style="text;html=1;align=center;verticalAlign=middle;whiteSpace=wrap;rounded=0;fontSize=6;movable=0;resizable=0;rotatable=0;deletable=0;editable=0;locked=1;connectable=0;" vertex="1" parent="1">
          <mxGeometry x="295" y="-35" width="30" height="10" as="geometry" />
        </mxCell>
        <mxCell id="TjpsCxPV2xhsYt3LEjeR-16" value="" style="rounded=1;whiteSpace=wrap;html=1;fillColor=#d5e8d4;strokeColor=#82b366;movable=0;resizable=0;rotatable=0;deletable=0;editable=0;locked=1;connectable=0;" vertex="1" parent="1">
          <mxGeometry x="290" y="30" width="40" height="20" as="geometry" />
        </mxCell>
        <mxCell id="TjpsCxPV2xhsYt3LEjeR-29" style="edgeStyle=orthogonalEdgeStyle;rounded=0;orthogonalLoop=1;jettySize=auto;html=1;entryX=1;entryY=0.5;entryDx=0;entryDy=0;movable=0;resizable=0;rotatable=0;deletable=0;editable=0;locked=1;connectable=0;" edge="1" parent="1" source="TjpsCxPV2xhsYt3LEjeR-17" target="TjpsCxPV2xhsYt3LEjeR-18">
          <mxGeometry relative="1" as="geometry" />
        </mxCell>
        <mxCell id="TjpsCxPV2xhsYt3LEjeR-17" value="Ticket" style="text;html=1;align=center;verticalAlign=middle;whiteSpace=wrap;rounded=0;fontSize=6;movable=0;resizable=0;rotatable=0;deletable=0;editable=0;locked=1;connectable=0;" vertex="1" parent="1">
          <mxGeometry x="295" y="35" width="30" height="10" as="geometry" />
        </mxCell>
        <mxCell id="TjpsCxPV2xhsYt3LEjeR-18" value="" style="rounded=1;whiteSpace=wrap;html=1;fillColor=#d5e8d4;strokeColor=#82b366;movable=0;resizable=0;rotatable=0;deletable=0;editable=0;locked=1;connectable=0;" vertex="1" parent="1">
          <mxGeometry x="220" y="30" width="40" height="20" as="geometry" />
        </mxCell>
        <mxCell id="TjpsCxPV2xhsYt3LEjeR-19" value="Ticket" style="text;html=1;align=center;verticalAlign=middle;whiteSpace=wrap;rounded=0;fontSize=6;movable=0;resizable=0;rotatable=0;deletable=0;editable=0;locked=1;connectable=0;" vertex="1" parent="1">
          <mxGeometry x="225" y="35" width="30" height="10" as="geometry" />
        </mxCell>
        <mxCell id="TjpsCxPV2xhsYt3LEjeR-22" value="File" style="text;html=1;align=center;verticalAlign=middle;whiteSpace=wrap;rounded=0;movable=0;resizable=0;rotatable=0;deletable=0;editable=0;locked=1;connectable=0;" vertex="1" parent="1">
          <mxGeometry x="215" y="-70" width="50" height="25" as="geometry" />
        </mxCell>
        <mxCell id="TjpsCxPV2xhsYt3LEjeR-30" value="" style="rounded=0;whiteSpace=wrap;html=1;movable=1;resizable=1;rotatable=1;deletable=1;editable=1;locked=0;connectable=1;fillColor=#f5f5f5;fontColor=#333333;strokeColor=#666666;" vertex="1" parent="1">
          <mxGeometry x="140" y="-80" width="200" height="150" as="geometry" />
        </mxCell>
        <mxCell id="TjpsCxPV2xhsYt3LEjeR-31" value="" style="rounded=1;whiteSpace=wrap;html=1;fillColor=#d5e8d4;strokeColor=#82b366;movable=0;resizable=0;rotatable=0;deletable=0;editable=0;locked=1;connectable=0;" vertex="1" parent="1">
          <mxGeometry x="150" y="-40" width="40" height="20" as="geometry" />
        </mxCell>
        <mxCell id="TjpsCxPV2xhsYt3LEjeR-32" style="edgeStyle=orthogonalEdgeStyle;rounded=0;orthogonalLoop=1;jettySize=auto;html=1;entryX=0;entryY=0.5;entryDx=0;entryDy=0;movable=0;resizable=0;rotatable=0;deletable=0;editable=0;locked=1;connectable=0;" edge="1" parent="1" source="TjpsCxPV2xhsYt3LEjeR-33" target="TjpsCxPV2xhsYt3LEjeR-34">
          <mxGeometry relative="1" as="geometry" />
        </mxCell>
        <mxCell id="TjpsCxPV2xhsYt3LEjeR-33" value="Ticket" style="text;html=1;align=center;verticalAlign=middle;whiteSpace=wrap;rounded=0;fontSize=6;movable=0;resizable=0;rotatable=0;deletable=0;editable=0;locked=1;connectable=0;" vertex="1" parent="1">
          <mxGeometry x="155" y="-35" width="30" height="10" as="geometry" />
        </mxCell>
        <mxCell id="TjpsCxPV2xhsYt3LEjeR-34" value="" style="rounded=1;whiteSpace=wrap;html=1;fillColor=#d5e8d4;strokeColor=#82b366;movable=0;resizable=0;rotatable=0;deletable=0;editable=0;locked=1;connectable=0;" vertex="1" parent="1">
          <mxGeometry x="220" y="-40" width="40" height="20" as="geometry" />
        </mxCell>
        <mxCell id="TjpsCxPV2xhsYt3LEjeR-35" style="edgeStyle=orthogonalEdgeStyle;rounded=0;orthogonalLoop=1;jettySize=auto;html=1;entryX=0;entryY=0.5;entryDx=0;entryDy=0;movable=0;resizable=0;rotatable=0;deletable=0;editable=0;locked=1;connectable=0;" edge="1" parent="1" source="TjpsCxPV2xhsYt3LEjeR-36" target="TjpsCxPV2xhsYt3LEjeR-37">
          <mxGeometry relative="1" as="geometry" />
        </mxCell>
        <mxCell id="TjpsCxPV2xhsYt3LEjeR-36" value="Ticket" style="text;html=1;align=center;verticalAlign=middle;whiteSpace=wrap;rounded=0;fontSize=6;movable=0;resizable=0;rotatable=0;deletable=0;editable=0;locked=1;connectable=0;" vertex="1" parent="1">
          <mxGeometry x="225" y="-35" width="30" height="10" as="geometry" />
        </mxCell>
        <mxCell id="TjpsCxPV2xhsYt3LEjeR-37" value="" style="rounded=1;whiteSpace=wrap;html=1;fillColor=#d5e8d4;strokeColor=#82b366;movable=0;resizable=0;rotatable=0;deletable=0;editable=0;locked=1;connectable=0;" vertex="1" parent="1">
          <mxGeometry x="290" y="-40" width="40" height="20" as="geometry" />
        </mxCell>
        <mxCell id="TjpsCxPV2xhsYt3LEjeR-38" style="edgeStyle=orthogonalEdgeStyle;rounded=0;orthogonalLoop=1;jettySize=auto;html=1;entryX=0.5;entryY=0;entryDx=0;entryDy=0;movable=0;resizable=0;rotatable=0;deletable=0;editable=0;locked=1;connectable=0;" edge="1" parent="1" source="TjpsCxPV2xhsYt3LEjeR-39" target="TjpsCxPV2xhsYt3LEjeR-40">
          <mxGeometry relative="1" as="geometry" />
        </mxCell>
        <mxCell id="TjpsCxPV2xhsYt3LEjeR-39" value="Ticket" style="text;html=1;align=center;verticalAlign=middle;whiteSpace=wrap;rounded=0;fontSize=6;movable=0;resizable=0;rotatable=0;deletable=0;editable=0;locked=1;connectable=0;" vertex="1" parent="1">
          <mxGeometry x="295" y="-35" width="30" height="10" as="geometry" />
        </mxCell>
        <mxCell id="TjpsCxPV2xhsYt3LEjeR-40" value="" style="rounded=1;whiteSpace=wrap;html=1;fillColor=#d5e8d4;strokeColor=#82b366;movable=0;resizable=0;rotatable=0;deletable=0;editable=0;locked=1;connectable=0;" vertex="1" parent="1">
          <mxGeometry x="290" y="30" width="40" height="20" as="geometry" />
        </mxCell>
        <mxCell id="TjpsCxPV2xhsYt3LEjeR-41" style="edgeStyle=orthogonalEdgeStyle;rounded=0;orthogonalLoop=1;jettySize=auto;html=1;entryX=1;entryY=0.5;entryDx=0;entryDy=0;movable=0;resizable=0;rotatable=0;deletable=0;editable=0;locked=1;connectable=0;" edge="1" parent="1" source="TjpsCxPV2xhsYt3LEjeR-42" target="TjpsCxPV2xhsYt3LEjeR-43">
          <mxGeometry relative="1" as="geometry" />
        </mxCell>
        <mxCell id="TjpsCxPV2xhsYt3LEjeR-42" value="Ticket" style="text;html=1;align=center;verticalAlign=middle;whiteSpace=wrap;rounded=0;fontSize=6;movable=0;resizable=0;rotatable=0;deletable=0;editable=0;locked=1;connectable=0;" vertex="1" parent="1">
          <mxGeometry x="295" y="35" width="30" height="10" as="geometry" />
        </mxCell>
        <mxCell id="TjpsCxPV2xhsYt3LEjeR-43" value="" style="rounded=1;whiteSpace=wrap;html=1;fillColor=#ffe6cc;strokeColor=#d79b00;movable=1;resizable=1;rotatable=1;deletable=1;editable=1;locked=0;connectable=1;" vertex="1" parent="1">
          <mxGeometry x="220" y="30" width="40" height="20" as="geometry" />
        </mxCell>
        <mxCell id="TjpsCxPV2xhsYt3LEjeR-44" value="Ticket" style="text;html=1;align=center;verticalAlign=middle;whiteSpace=wrap;rounded=0;fontSize=6;movable=0;resizable=0;rotatable=0;deletable=0;editable=0;locked=1;connectable=0;" vertex="1" parent="1">
          <mxGeometry x="225" y="35" width="30" height="10" as="geometry" />
        </mxCell>
        <mxCell id="TjpsCxPV2xhsYt3LEjeR-45" value="File" style="text;html=1;align=center;verticalAlign=middle;whiteSpace=wrap;rounded=0;movable=0;resizable=0;rotatable=0;deletable=0;editable=0;locked=1;connectable=0;" vertex="1" parent="1">
          <mxGeometry x="215" y="-70" width="50" height="25" as="geometry" />
        </mxCell>
        <mxCell id="TjpsCxPV2xhsYt3LEjeR-46" value="" style="rounded=0;whiteSpace=wrap;html=1;movable=0;resizable=0;rotatable=0;deletable=0;editable=0;locked=1;connectable=0;" vertex="1" parent="1">
          <mxGeometry x="140" y="90" width="200" height="150" as="geometry" />
        </mxCell>
        <mxCell id="TjpsCxPV2xhsYt3LEjeR-47" value="" style="rounded=1;whiteSpace=wrap;html=1;fillColor=#d5e8d4;strokeColor=#82b366;movable=0;resizable=0;rotatable=0;deletable=0;editable=0;locked=1;connectable=0;" vertex="1" parent="1">
          <mxGeometry x="150" y="130" width="40" height="20" as="geometry" />
        </mxCell>
        <mxCell id="TjpsCxPV2xhsYt3LEjeR-48" style="edgeStyle=orthogonalEdgeStyle;rounded=0;orthogonalLoop=1;jettySize=auto;html=1;entryX=0;entryY=0.5;entryDx=0;entryDy=0;movable=0;resizable=0;rotatable=0;deletable=0;editable=0;locked=1;connectable=0;" edge="1" parent="1" source="TjpsCxPV2xhsYt3LEjeR-49" target="TjpsCxPV2xhsYt3LEjeR-50">
          <mxGeometry relative="1" as="geometry" />
        </mxCell>
        <mxCell id="TjpsCxPV2xhsYt3LEjeR-49" value="Ticket" style="text;html=1;align=center;verticalAlign=middle;whiteSpace=wrap;rounded=0;fontSize=6;movable=0;resizable=0;rotatable=0;deletable=0;editable=0;locked=1;connectable=0;" vertex="1" parent="1">
          <mxGeometry x="155" y="135" width="30" height="10" as="geometry" />
        </mxCell>
        <mxCell id="TjpsCxPV2xhsYt3LEjeR-50" value="" style="rounded=1;whiteSpace=wrap;html=1;fillColor=#d5e8d4;strokeColor=#82b366;movable=0;resizable=0;rotatable=0;deletable=0;editable=0;locked=1;connectable=0;" vertex="1" parent="1">
          <mxGeometry x="220" y="130" width="40" height="20" as="geometry" />
        </mxCell>
        <mxCell id="TjpsCxPV2xhsYt3LEjeR-51" style="edgeStyle=orthogonalEdgeStyle;rounded=0;orthogonalLoop=1;jettySize=auto;html=1;entryX=0;entryY=0.5;entryDx=0;entryDy=0;movable=0;resizable=0;rotatable=0;deletable=0;editable=0;locked=1;connectable=0;" edge="1" parent="1" source="TjpsCxPV2xhsYt3LEjeR-52" target="TjpsCxPV2xhsYt3LEjeR-53">
          <mxGeometry relative="1" as="geometry" />
        </mxCell>
        <mxCell id="TjpsCxPV2xhsYt3LEjeR-52" value="Ticket" style="text;html=1;align=center;verticalAlign=middle;whiteSpace=wrap;rounded=0;fontSize=6;movable=0;resizable=0;rotatable=0;deletable=0;editable=0;locked=1;connectable=0;" vertex="1" parent="1">
          <mxGeometry x="225" y="135" width="30" height="10" as="geometry" />
        </mxCell>
        <mxCell id="TjpsCxPV2xhsYt3LEjeR-53" value="" style="rounded=1;whiteSpace=wrap;html=1;fillColor=#d5e8d4;strokeColor=#82b366;movable=0;resizable=0;rotatable=0;deletable=0;editable=0;locked=1;connectable=0;" vertex="1" parent="1">
          <mxGeometry x="290" y="130" width="40" height="20" as="geometry" />
        </mxCell>
        <mxCell id="TjpsCxPV2xhsYt3LEjeR-54" style="edgeStyle=orthogonalEdgeStyle;rounded=0;orthogonalLoop=1;jettySize=auto;html=1;entryX=0.5;entryY=0;entryDx=0;entryDy=0;movable=0;resizable=0;rotatable=0;deletable=0;editable=0;locked=1;connectable=0;" edge="1" parent="1" source="TjpsCxPV2xhsYt3LEjeR-55" target="TjpsCxPV2xhsYt3LEjeR-56">
          <mxGeometry relative="1" as="geometry" />
        </mxCell>
        <mxCell id="TjpsCxPV2xhsYt3LEjeR-55" value="Ticket" style="text;html=1;align=center;verticalAlign=middle;whiteSpace=wrap;rounded=0;fontSize=6;movable=0;resizable=0;rotatable=0;deletable=0;editable=0;locked=1;connectable=0;" vertex="1" parent="1">
          <mxGeometry x="295" y="135" width="30" height="10" as="geometry" />
        </mxCell>
        <mxCell id="TjpsCxPV2xhsYt3LEjeR-56" value="" style="rounded=1;whiteSpace=wrap;html=1;fillColor=#d5e8d4;strokeColor=#82b366;movable=0;resizable=0;rotatable=0;deletable=0;editable=0;locked=1;connectable=0;" vertex="1" parent="1">
          <mxGeometry x="290" y="200" width="40" height="20" as="geometry" />
        </mxCell>
        <mxCell id="TjpsCxPV2xhsYt3LEjeR-57" style="edgeStyle=orthogonalEdgeStyle;rounded=0;orthogonalLoop=1;jettySize=auto;html=1;entryX=1;entryY=0.5;entryDx=0;entryDy=0;movable=0;resizable=0;rotatable=0;deletable=0;editable=0;locked=1;connectable=0;" edge="1" parent="1" source="TjpsCxPV2xhsYt3LEjeR-58" target="TjpsCxPV2xhsYt3LEjeR-59">
          <mxGeometry relative="1" as="geometry" />
        </mxCell>
        <mxCell id="TjpsCxPV2xhsYt3LEjeR-58" value="Ticket" style="text;html=1;align=center;verticalAlign=middle;whiteSpace=wrap;rounded=0;fontSize=6;movable=0;resizable=0;rotatable=0;deletable=0;editable=0;locked=1;connectable=0;" vertex="1" parent="1">
          <mxGeometry x="295" y="205" width="30" height="10" as="geometry" />
        </mxCell>
        <mxCell id="TjpsCxPV2xhsYt3LEjeR-59" value="" style="rounded=1;whiteSpace=wrap;html=1;fillColor=#d5e8d4;strokeColor=#82b366;movable=0;resizable=0;rotatable=0;deletable=0;editable=0;locked=1;connectable=0;" vertex="1" parent="1">
          <mxGeometry x="220" y="200" width="40" height="20" as="geometry" />
        </mxCell>
        <mxCell id="TjpsCxPV2xhsYt3LEjeR-60" value="Ticket" style="text;html=1;align=center;verticalAlign=middle;whiteSpace=wrap;rounded=0;fontSize=6;movable=0;resizable=0;rotatable=0;deletable=0;editable=0;locked=1;connectable=0;" vertex="1" parent="1">
          <mxGeometry x="225" y="205" width="30" height="10" as="geometry" />
        </mxCell>
        <mxCell id="TjpsCxPV2xhsYt3LEjeR-61" value="File" style="text;html=1;align=center;verticalAlign=middle;whiteSpace=wrap;rounded=0;movable=0;resizable=0;rotatable=0;deletable=0;editable=0;locked=1;connectable=0;" vertex="1" parent="1">
          <mxGeometry x="215" y="100" width="50" height="25" as="geometry" />
        </mxCell>
        <mxCell id="TjpsCxPV2xhsYt3LEjeR-62" value="" style="rounded=0;whiteSpace=wrap;html=1;movable=0;resizable=0;rotatable=0;deletable=0;editable=0;locked=1;connectable=0;" vertex="1" parent="1">
          <mxGeometry x="390" y="-80" width="200" height="150" as="geometry" />
        </mxCell>
        <mxCell id="TjpsCxPV2xhsYt3LEjeR-63" value="" style="rounded=1;whiteSpace=wrap;html=1;fillColor=#d5e8d4;strokeColor=#82b366;movable=0;resizable=0;rotatable=0;deletable=0;editable=0;locked=1;connectable=0;" vertex="1" parent="1">
          <mxGeometry x="400" y="-40" width="40" height="20" as="geometry" />
        </mxCell>
        <mxCell id="TjpsCxPV2xhsYt3LEjeR-64" style="edgeStyle=orthogonalEdgeStyle;rounded=0;orthogonalLoop=1;jettySize=auto;html=1;entryX=0;entryY=0.5;entryDx=0;entryDy=0;movable=0;resizable=0;rotatable=0;deletable=0;editable=0;locked=1;connectable=0;" edge="1" parent="1" source="TjpsCxPV2xhsYt3LEjeR-65" target="TjpsCxPV2xhsYt3LEjeR-66">
          <mxGeometry relative="1" as="geometry" />
        </mxCell>
        <mxCell id="TjpsCxPV2xhsYt3LEjeR-65" value="Ticket" style="text;html=1;align=center;verticalAlign=middle;whiteSpace=wrap;rounded=0;fontSize=6;movable=0;resizable=0;rotatable=0;deletable=0;editable=0;locked=1;connectable=0;" vertex="1" parent="1">
          <mxGeometry x="405" y="-35" width="30" height="10" as="geometry" />
        </mxCell>
        <mxCell id="TjpsCxPV2xhsYt3LEjeR-66" value="" style="rounded=1;whiteSpace=wrap;html=1;fillColor=#d5e8d4;strokeColor=#82b366;movable=0;resizable=0;rotatable=0;deletable=0;editable=0;locked=1;connectable=0;" vertex="1" parent="1">
          <mxGeometry x="470" y="-40" width="40" height="20" as="geometry" />
        </mxCell>
        <mxCell id="TjpsCxPV2xhsYt3LEjeR-67" style="edgeStyle=orthogonalEdgeStyle;rounded=0;orthogonalLoop=1;jettySize=auto;html=1;entryX=0;entryY=0.5;entryDx=0;entryDy=0;movable=0;resizable=0;rotatable=0;deletable=0;editable=0;locked=1;connectable=0;" edge="1" parent="1" source="TjpsCxPV2xhsYt3LEjeR-68" target="TjpsCxPV2xhsYt3LEjeR-69">
          <mxGeometry relative="1" as="geometry" />
        </mxCell>
        <mxCell id="TjpsCxPV2xhsYt3LEjeR-68" value="Ticket" style="text;html=1;align=center;verticalAlign=middle;whiteSpace=wrap;rounded=0;fontSize=6;movable=0;resizable=0;rotatable=0;deletable=0;editable=0;locked=1;connectable=0;" vertex="1" parent="1">
          <mxGeometry x="475" y="-35" width="30" height="10" as="geometry" />
        </mxCell>
        <mxCell id="TjpsCxPV2xhsYt3LEjeR-69" value="" style="rounded=1;whiteSpace=wrap;html=1;fillColor=#d5e8d4;strokeColor=#82b366;movable=0;resizable=0;rotatable=0;deletable=0;editable=0;locked=1;connectable=0;" vertex="1" parent="1">
          <mxGeometry x="540" y="-40" width="40" height="20" as="geometry" />
        </mxCell>
        <mxCell id="TjpsCxPV2xhsYt3LEjeR-70" style="edgeStyle=orthogonalEdgeStyle;rounded=0;orthogonalLoop=1;jettySize=auto;html=1;entryX=0.5;entryY=0;entryDx=0;entryDy=0;movable=0;resizable=0;rotatable=0;deletable=0;editable=0;locked=1;connectable=0;" edge="1" parent="1" source="TjpsCxPV2xhsYt3LEjeR-71" target="TjpsCxPV2xhsYt3LEjeR-72">
          <mxGeometry relative="1" as="geometry" />
        </mxCell>
        <mxCell id="TjpsCxPV2xhsYt3LEjeR-71" value="Ticket" style="text;html=1;align=center;verticalAlign=middle;whiteSpace=wrap;rounded=0;fontSize=6;movable=0;resizable=0;rotatable=0;deletable=0;editable=0;locked=1;connectable=0;" vertex="1" parent="1">
          <mxGeometry x="545" y="-35" width="30" height="10" as="geometry" />
        </mxCell>
        <mxCell id="TjpsCxPV2xhsYt3LEjeR-72" value="" style="rounded=1;whiteSpace=wrap;html=1;fillColor=#d5e8d4;strokeColor=#82b366;movable=0;resizable=0;rotatable=0;deletable=0;editable=0;locked=1;connectable=0;" vertex="1" parent="1">
          <mxGeometry x="540" y="30" width="40" height="20" as="geometry" />
        </mxCell>
        <mxCell id="TjpsCxPV2xhsYt3LEjeR-73" style="edgeStyle=orthogonalEdgeStyle;rounded=0;orthogonalLoop=1;jettySize=auto;html=1;entryX=1;entryY=0.5;entryDx=0;entryDy=0;movable=0;resizable=0;rotatable=0;deletable=0;editable=0;locked=1;connectable=0;" edge="1" parent="1" source="TjpsCxPV2xhsYt3LEjeR-74" target="TjpsCxPV2xhsYt3LEjeR-75">
          <mxGeometry relative="1" as="geometry" />
        </mxCell>
        <mxCell id="TjpsCxPV2xhsYt3LEjeR-74" value="Ticket" style="text;html=1;align=center;verticalAlign=middle;whiteSpace=wrap;rounded=0;fontSize=6;movable=0;resizable=0;rotatable=0;deletable=0;editable=0;locked=1;connectable=0;" vertex="1" parent="1">
          <mxGeometry x="545" y="35" width="30" height="10" as="geometry" />
        </mxCell>
        <mxCell id="TjpsCxPV2xhsYt3LEjeR-75" value="" style="rounded=1;whiteSpace=wrap;html=1;fillColor=#d5e8d4;strokeColor=#82b366;movable=0;resizable=0;rotatable=0;deletable=0;editable=0;locked=1;connectable=0;" vertex="1" parent="1">
          <mxGeometry x="470" y="30" width="40" height="20" as="geometry" />
        </mxCell>
        <mxCell id="TjpsCxPV2xhsYt3LEjeR-76" value="Ticket" style="text;html=1;align=center;verticalAlign=middle;whiteSpace=wrap;rounded=0;fontSize=6;movable=0;resizable=0;rotatable=0;deletable=0;editable=0;locked=1;connectable=0;" vertex="1" parent="1">
          <mxGeometry x="475" y="35" width="30" height="10" as="geometry" />
        </mxCell>
        <mxCell id="TjpsCxPV2xhsYt3LEjeR-77" value="File" style="text;html=1;align=center;verticalAlign=middle;whiteSpace=wrap;rounded=0;movable=0;resizable=0;rotatable=0;deletable=0;editable=0;locked=1;connectable=0;" vertex="1" parent="1">
          <mxGeometry x="465" y="-70" width="50" height="25" as="geometry" />
        </mxCell>
        <mxCell id="TjpsCxPV2xhsYt3LEjeR-78" value="" style="rounded=0;whiteSpace=wrap;html=1;movable=0;resizable=0;rotatable=0;deletable=0;editable=0;locked=1;connectable=0;" vertex="1" parent="1">
          <mxGeometry x="640" y="-80" width="200" height="150" as="geometry" />
        </mxCell>
        <mxCell id="TjpsCxPV2xhsYt3LEjeR-79" value="" style="rounded=1;whiteSpace=wrap;html=1;fillColor=#d5e8d4;strokeColor=#82b366;movable=0;resizable=0;rotatable=0;deletable=0;editable=0;locked=1;connectable=0;" vertex="1" parent="1">
          <mxGeometry x="650" y="-40" width="40" height="20" as="geometry" />
        </mxCell>
        <mxCell id="TjpsCxPV2xhsYt3LEjeR-80" style="edgeStyle=orthogonalEdgeStyle;rounded=0;orthogonalLoop=1;jettySize=auto;html=1;entryX=0;entryY=0.5;entryDx=0;entryDy=0;movable=0;resizable=0;rotatable=0;deletable=0;editable=0;locked=1;connectable=0;" edge="1" parent="1" source="TjpsCxPV2xhsYt3LEjeR-81" target="TjpsCxPV2xhsYt3LEjeR-82">
          <mxGeometry relative="1" as="geometry" />
        </mxCell>
        <mxCell id="TjpsCxPV2xhsYt3LEjeR-81" value="Ticket" style="text;html=1;align=center;verticalAlign=middle;whiteSpace=wrap;rounded=0;fontSize=6;movable=0;resizable=0;rotatable=0;deletable=0;editable=0;locked=1;connectable=0;" vertex="1" parent="1">
          <mxGeometry x="655" y="-35" width="30" height="10" as="geometry" />
        </mxCell>
        <mxCell id="TjpsCxPV2xhsYt3LEjeR-82" value="" style="rounded=1;whiteSpace=wrap;html=1;fillColor=#d5e8d4;strokeColor=#82b366;movable=0;resizable=0;rotatable=0;deletable=0;editable=0;locked=1;connectable=0;" vertex="1" parent="1">
          <mxGeometry x="720" y="-40" width="40" height="20" as="geometry" />
        </mxCell>
        <mxCell id="TjpsCxPV2xhsYt3LEjeR-83" style="edgeStyle=orthogonalEdgeStyle;rounded=0;orthogonalLoop=1;jettySize=auto;html=1;entryX=0;entryY=0.5;entryDx=0;entryDy=0;movable=0;resizable=0;rotatable=0;deletable=0;editable=0;locked=1;connectable=0;" edge="1" parent="1" source="TjpsCxPV2xhsYt3LEjeR-84" target="TjpsCxPV2xhsYt3LEjeR-85">
          <mxGeometry relative="1" as="geometry" />
        </mxCell>
        <mxCell id="TjpsCxPV2xhsYt3LEjeR-84" value="Ticket" style="text;html=1;align=center;verticalAlign=middle;whiteSpace=wrap;rounded=0;fontSize=6;movable=0;resizable=0;rotatable=0;deletable=0;editable=0;locked=1;connectable=0;" vertex="1" parent="1">
          <mxGeometry x="725" y="-35" width="30" height="10" as="geometry" />
        </mxCell>
        <mxCell id="TjpsCxPV2xhsYt3LEjeR-85" value="" style="rounded=1;whiteSpace=wrap;html=1;fillColor=#d5e8d4;strokeColor=#82b366;movable=0;resizable=0;rotatable=0;deletable=0;editable=0;locked=1;connectable=0;" vertex="1" parent="1">
          <mxGeometry x="790" y="-40" width="40" height="20" as="geometry" />
        </mxCell>
        <mxCell id="TjpsCxPV2xhsYt3LEjeR-86" style="edgeStyle=orthogonalEdgeStyle;rounded=0;orthogonalLoop=1;jettySize=auto;html=1;entryX=0.5;entryY=0;entryDx=0;entryDy=0;movable=0;resizable=0;rotatable=0;deletable=0;editable=0;locked=1;connectable=0;" edge="1" parent="1" source="TjpsCxPV2xhsYt3LEjeR-87" target="TjpsCxPV2xhsYt3LEjeR-88">
          <mxGeometry relative="1" as="geometry" />
        </mxCell>
        <mxCell id="TjpsCxPV2xhsYt3LEjeR-87" value="Ticket" style="text;html=1;align=center;verticalAlign=middle;whiteSpace=wrap;rounded=0;fontSize=6;movable=0;resizable=0;rotatable=0;deletable=0;editable=0;locked=1;connectable=0;" vertex="1" parent="1">
          <mxGeometry x="795" y="-35" width="30" height="10" as="geometry" />
        </mxCell>
        <mxCell id="TjpsCxPV2xhsYt3LEjeR-88" value="" style="rounded=1;whiteSpace=wrap;html=1;fillColor=#d5e8d4;strokeColor=#82b366;movable=0;resizable=0;rotatable=0;deletable=0;editable=0;locked=1;connectable=0;" vertex="1" parent="1">
          <mxGeometry x="790" y="30" width="40" height="20" as="geometry" />
        </mxCell>
        <mxCell id="TjpsCxPV2xhsYt3LEjeR-89" style="edgeStyle=orthogonalEdgeStyle;rounded=0;orthogonalLoop=1;jettySize=auto;html=1;entryX=1;entryY=0.5;entryDx=0;entryDy=0;movable=0;resizable=0;rotatable=0;deletable=0;editable=0;locked=1;connectable=0;" edge="1" parent="1" source="TjpsCxPV2xhsYt3LEjeR-90" target="TjpsCxPV2xhsYt3LEjeR-91">
          <mxGeometry relative="1" as="geometry" />
        </mxCell>
        <mxCell id="TjpsCxPV2xhsYt3LEjeR-90" value="Ticket" style="text;html=1;align=center;verticalAlign=middle;whiteSpace=wrap;rounded=0;fontSize=6;movable=0;resizable=0;rotatable=0;deletable=0;editable=0;locked=1;connectable=0;" vertex="1" parent="1">
          <mxGeometry x="795" y="35" width="30" height="10" as="geometry" />
        </mxCell>
        <mxCell id="TjpsCxPV2xhsYt3LEjeR-91" value="" style="rounded=1;whiteSpace=wrap;html=1;fillColor=#d5e8d4;strokeColor=#82b366;movable=0;resizable=0;rotatable=0;deletable=0;editable=0;locked=1;connectable=0;" vertex="1" parent="1">
          <mxGeometry x="720" y="30" width="40" height="20" as="geometry" />
        </mxCell>
        <mxCell id="TjpsCxPV2xhsYt3LEjeR-92" value="Ticket" style="text;html=1;align=center;verticalAlign=middle;whiteSpace=wrap;rounded=0;fontSize=6;movable=0;resizable=0;rotatable=0;deletable=0;editable=0;locked=1;connectable=0;" vertex="1" parent="1">
          <mxGeometry x="725" y="35" width="30" height="10" as="geometry" />
        </mxCell>
        <mxCell id="TjpsCxPV2xhsYt3LEjeR-93" value="File" style="text;html=1;align=center;verticalAlign=middle;whiteSpace=wrap;rounded=0;movable=0;resizable=0;rotatable=0;deletable=0;editable=0;locked=1;connectable=0;" vertex="1" parent="1">
          <mxGeometry x="715" y="-70" width="50" height="25" as="geometry" />
        </mxCell>
        <mxCell id="TjpsCxPV2xhsYt3LEjeR-94" value="" style="rounded=0;whiteSpace=wrap;html=1;movable=0;resizable=0;rotatable=0;deletable=0;editable=0;locked=1;connectable=0;" vertex="1" parent="1">
          <mxGeometry x="640" y="100" width="200" height="150" as="geometry" />
        </mxCell>
        <mxCell id="TjpsCxPV2xhsYt3LEjeR-95" value="" style="rounded=1;whiteSpace=wrap;html=1;fillColor=#d5e8d4;strokeColor=#82b366;movable=0;resizable=0;rotatable=0;deletable=0;editable=0;locked=1;connectable=0;" vertex="1" parent="1">
          <mxGeometry x="650" y="140" width="40" height="20" as="geometry" />
        </mxCell>
        <mxCell id="TjpsCxPV2xhsYt3LEjeR-96" style="edgeStyle=orthogonalEdgeStyle;rounded=0;orthogonalLoop=1;jettySize=auto;html=1;entryX=0;entryY=0.5;entryDx=0;entryDy=0;movable=0;resizable=0;rotatable=0;deletable=0;editable=0;locked=1;connectable=0;" edge="1" parent="1" source="TjpsCxPV2xhsYt3LEjeR-97" target="TjpsCxPV2xhsYt3LEjeR-98">
          <mxGeometry relative="1" as="geometry" />
        </mxCell>
        <mxCell id="TjpsCxPV2xhsYt3LEjeR-97" value="Ticket" style="text;html=1;align=center;verticalAlign=middle;whiteSpace=wrap;rounded=0;fontSize=6;movable=0;resizable=0;rotatable=0;deletable=0;editable=0;locked=1;connectable=0;" vertex="1" parent="1">
          <mxGeometry x="655" y="145" width="30" height="10" as="geometry" />
        </mxCell>
        <mxCell id="TjpsCxPV2xhsYt3LEjeR-98" value="" style="rounded=1;whiteSpace=wrap;html=1;fillColor=#d5e8d4;strokeColor=#82b366;movable=0;resizable=0;rotatable=0;deletable=0;editable=0;locked=1;connectable=0;" vertex="1" parent="1">
          <mxGeometry x="720" y="140" width="40" height="20" as="geometry" />
        </mxCell>
        <mxCell id="TjpsCxPV2xhsYt3LEjeR-99" style="edgeStyle=orthogonalEdgeStyle;rounded=0;orthogonalLoop=1;jettySize=auto;html=1;entryX=0;entryY=0.5;entryDx=0;entryDy=0;movable=0;resizable=0;rotatable=0;deletable=0;editable=0;locked=1;connectable=0;" edge="1" parent="1" source="TjpsCxPV2xhsYt3LEjeR-100" target="TjpsCxPV2xhsYt3LEjeR-101">
          <mxGeometry relative="1" as="geometry" />
        </mxCell>
        <mxCell id="TjpsCxPV2xhsYt3LEjeR-100" value="Ticket" style="text;html=1;align=center;verticalAlign=middle;whiteSpace=wrap;rounded=0;fontSize=6;movable=0;resizable=0;rotatable=0;deletable=0;editable=0;locked=1;connectable=0;" vertex="1" parent="1">
          <mxGeometry x="725" y="145" width="30" height="10" as="geometry" />
        </mxCell>
        <mxCell id="TjpsCxPV2xhsYt3LEjeR-101" value="" style="rounded=1;whiteSpace=wrap;html=1;fillColor=#d5e8d4;strokeColor=#82b366;movable=0;resizable=0;rotatable=0;deletable=0;editable=0;locked=1;connectable=0;" vertex="1" parent="1">
          <mxGeometry x="790" y="140" width="40" height="20" as="geometry" />
        </mxCell>
        <mxCell id="TjpsCxPV2xhsYt3LEjeR-102" style="edgeStyle=orthogonalEdgeStyle;rounded=0;orthogonalLoop=1;jettySize=auto;html=1;entryX=0.5;entryY=0;entryDx=0;entryDy=0;movable=0;resizable=0;rotatable=0;deletable=0;editable=0;locked=1;connectable=0;" edge="1" parent="1" source="TjpsCxPV2xhsYt3LEjeR-103" target="TjpsCxPV2xhsYt3LEjeR-104">
          <mxGeometry relative="1" as="geometry" />
        </mxCell>
        <mxCell id="TjpsCxPV2xhsYt3LEjeR-103" value="Ticket" style="text;html=1;align=center;verticalAlign=middle;whiteSpace=wrap;rounded=0;fontSize=6;movable=0;resizable=0;rotatable=0;deletable=0;editable=0;locked=1;connectable=0;" vertex="1" parent="1">
          <mxGeometry x="795" y="145" width="30" height="10" as="geometry" />
        </mxCell>
        <mxCell id="TjpsCxPV2xhsYt3LEjeR-104" value="" style="rounded=1;whiteSpace=wrap;html=1;fillColor=#d5e8d4;strokeColor=#82b366;movable=0;resizable=0;rotatable=0;deletable=0;editable=0;locked=1;connectable=0;" vertex="1" parent="1">
          <mxGeometry x="790" y="210" width="40" height="20" as="geometry" />
        </mxCell>
        <mxCell id="TjpsCxPV2xhsYt3LEjeR-105" style="edgeStyle=orthogonalEdgeStyle;rounded=0;orthogonalLoop=1;jettySize=auto;html=1;entryX=1;entryY=0.5;entryDx=0;entryDy=0;movable=0;resizable=0;rotatable=0;deletable=0;editable=0;locked=1;connectable=0;" edge="1" parent="1" source="TjpsCxPV2xhsYt3LEjeR-106" target="TjpsCxPV2xhsYt3LEjeR-107">
          <mxGeometry relative="1" as="geometry" />
        </mxCell>
        <mxCell id="TjpsCxPV2xhsYt3LEjeR-106" value="Ticket" style="text;html=1;align=center;verticalAlign=middle;whiteSpace=wrap;rounded=0;fontSize=6;movable=0;resizable=0;rotatable=0;deletable=0;editable=0;locked=1;connectable=0;" vertex="1" parent="1">
          <mxGeometry x="795" y="215" width="30" height="10" as="geometry" />
        </mxCell>
        <mxCell id="TjpsCxPV2xhsYt3LEjeR-107" value="" style="rounded=1;whiteSpace=wrap;html=1;fillColor=#d5e8d4;strokeColor=#82b366;movable=0;resizable=0;rotatable=0;deletable=0;editable=0;locked=1;connectable=0;" vertex="1" parent="1">
          <mxGeometry x="720" y="210" width="40" height="20" as="geometry" />
        </mxCell>
        <mxCell id="TjpsCxPV2xhsYt3LEjeR-108" value="Ticket" style="text;html=1;align=center;verticalAlign=middle;whiteSpace=wrap;rounded=0;fontSize=6;movable=0;resizable=0;rotatable=0;deletable=0;editable=0;locked=1;connectable=0;" vertex="1" parent="1">
          <mxGeometry x="725" y="215" width="30" height="10" as="geometry" />
        </mxCell>
        <mxCell id="TjpsCxPV2xhsYt3LEjeR-109" value="File" style="text;html=1;align=center;verticalAlign=middle;whiteSpace=wrap;rounded=0;movable=0;resizable=0;rotatable=0;deletable=0;editable=0;locked=1;connectable=0;" vertex="1" parent="1">
          <mxGeometry x="715" y="110" width="50" height="25" as="geometry" />
        </mxCell>
        <mxCell id="TjpsCxPV2xhsYt3LEjeR-116" style="edgeStyle=orthogonalEdgeStyle;rounded=0;orthogonalLoop=1;jettySize=auto;html=1;fillColor=#f8cecc;strokeColor=#b85450;" edge="1" parent="1" source="TjpsCxPV2xhsYt3LEjeR-113" target="TjpsCxPV2xhsYt3LEjeR-115">
          <mxGeometry relative="1" as="geometry" />
        </mxCell>
        <mxCell id="TjpsCxPV2xhsYt3LEjeR-125" value="send cmd struct" style="edgeLabel;html=1;align=center;verticalAlign=middle;resizable=0;points=[];" vertex="1" connectable="0" parent="TjpsCxPV2xhsYt3LEjeR-116">
          <mxGeometry x="-0.259" y="3" relative="1" as="geometry">
            <mxPoint as="offset" />
          </mxGeometry>
        </mxCell>
        <mxCell id="TjpsCxPV2xhsYt3LEjeR-113" value="Tikkat" style="ellipse;shape=cloud;whiteSpace=wrap;html=1;fillColor=#f8cecc;strokeColor=#b85450;" vertex="1" parent="1">
          <mxGeometry x="430" y="-660" width="120" height="80" as="geometry" />
        </mxCell>
        <mxCell id="TjpsCxPV2xhsYt3LEjeR-117" style="edgeStyle=orthogonalEdgeStyle;rounded=0;orthogonalLoop=1;jettySize=auto;html=1;fillColor=#ffe6cc;strokeColor=#d79b00;" edge="1" parent="1" source="TjpsCxPV2xhsYt3LEjeR-115">
          <mxGeometry relative="1" as="geometry">
            <mxPoint x="220" y="40" as="targetPoint" />
            <Array as="points">
              <mxPoint x="70" y="-385" />
              <mxPoint x="70" y="40" />
            </Array>
          </mxGeometry>
        </mxCell>
        <mxCell id="TjpsCxPV2xhsYt3LEjeR-119" value="Put ticket" style="edgeLabel;html=1;align=center;verticalAlign=middle;resizable=0;points=[];" vertex="1" connectable="0" parent="TjpsCxPV2xhsYt3LEjeR-117">
          <mxGeometry x="-0.5337" y="2" relative="1" as="geometry">
            <mxPoint as="offset" />
          </mxGeometry>
        </mxCell>
        <mxCell id="TjpsCxPV2xhsYt3LEjeR-115" value="Handler" style="shape=cube;whiteSpace=wrap;html=1;boundedLbl=1;backgroundOutline=1;darkOpacity=0.05;darkOpacity2=0.1;" vertex="1" parent="1">
          <mxGeometry x="430" y="-430" width="120" height="90" as="geometry" />
        </mxCell>
        <mxCell id="TjpsCxPV2xhsYt3LEjeR-121" style="edgeStyle=orthogonalEdgeStyle;rounded=0;orthogonalLoop=1;jettySize=auto;html=1;" edge="1" parent="1" source="TjpsCxPV2xhsYt3LEjeR-120" target="TjpsCxPV2xhsYt3LEjeR-113">
          <mxGeometry relative="1" as="geometry" />
        </mxCell>
        <mxCell id="TjpsCxPV2xhsYt3LEjeR-122" value="tikk -b Branch-1 &quot;Problem X in file Y&quot;" style="edgeLabel;html=1;align=center;verticalAlign=middle;resizable=0;points=[];" vertex="1" connectable="0" parent="TjpsCxPV2xhsYt3LEjeR-121">
          <mxGeometry x="0.298" y="-1" relative="1" as="geometry">
            <mxPoint x="68" y="1" as="offset" />
          </mxGeometry>
        </mxCell>
        <mxCell id="TjpsCxPV2xhsYt3LEjeR-120" value="User" style="shape=umlActor;verticalLabelPosition=bottom;verticalAlign=top;html=1;outlineConnect=0;" vertex="1" parent="1">
          <mxGeometry x="940" y="-650" width="30" height="60" as="geometry" />
        </mxCell>
        <mxCell id="TjpsCxPV2xhsYt3LEjeR-123" value="DB" style="shape=cylinder3;whiteSpace=wrap;html=1;boundedLbl=1;backgroundOutline=1;size=15;" vertex="1" parent="1">
          <mxGeometry x="680" y="-430" width="60" height="80" as="geometry" />
        </mxCell>
        <mxCell id="TjpsCxPV2xhsYt3LEjeR-124" style="edgeStyle=orthogonalEdgeStyle;rounded=0;orthogonalLoop=1;jettySize=auto;html=1;entryX=-0.009;entryY=0.562;entryDx=0;entryDy=0;entryPerimeter=0;dashed=1;endArrow=open;endFill=0;" edge="1" parent="1" source="TjpsCxPV2xhsYt3LEjeR-115" target="TjpsCxPV2xhsYt3LEjeR-123">
          <mxGeometry relative="1" as="geometry" />
        </mxCell>
      </root>
    </mxGraphModel>
  </diagram>
</mxfile>
